{"title":"Wrong.Turn.4.Bloody.Beginnings.2011.DVDRip.XviD-EXViD.","uid":7017678,"size":768132641,"categoryP":"video","categoryS":"movies","magnet":"?xt=urn:btih:bdc1017880cc5f71b21a7919e060723154d1c673&amp;dn=Wrong.Turn.4.Bloody.Beginnings.2011.DVDRip.XviD-EXViD.&amp;tr=udp%3A%2F%2Ftracker.openbittorrent.com%3A80&amp;tr=udp%3A%2F%2Fopen.demonii.com%3A1337&amp;tr=udp%3A%2F%2Ftracker.coppersurfer.tk%3A6969&amp;tr=udp%3A%2F%2Fexodus.desync.com%3A6969","seeders":0,"leechers":0,"uploader":"moviesp2p","files":56,"time":1328719642,"description":"EXVID\n\nFilled the Archives\n\nWith:\n\nE240\n\nSP              (C) 2009\n\nWrong.Turn.4.Bloody.Beginnings.2011.DVDRip.XviD-EXViD\n\nEXViD aims to iNTERNAL those releases which have been lost in the archives\nEXViD aims to PRE non-internal releases which have poor sources and are likely skipped by others\n &lt;a href=&quot;\nhttp://www.imdb.com/title/tt1865567&quot; rel=&quot;nofollow&quot; target=&quot;_NEW&quot;&gt;\nhttp://www.imdb.com/title/tt1865567&lt;/a&gt;\nSubtitles: EN, FR, NL, IT\nDate: 2012.02\n\nDirector: Declan O'Brien\n\nGenres: Action  Horror  Thriller\n\nPlot\nFollows a group of friends that decide to go snowmobiling during their winter break. They make\na &quot;wrong turn&quot;, getting lost in a storm, and seek shelter in an abandoned sanatorium. They are\ncompletely isolated by the storm and are thankful they can get out of the elements. But the\nsanatorium has a troubled past, and some of its former patients still reside there and are not\nhappy about the intrusion. In a deadly game of cat and mouse, the college kids must fight to\nsurvive the night.\n\nCast\nSean Skene  ... Three Finger / Vincent\nBlane Cypurda  ... Three Finger - 8\nDan Skene  ...  One Eye (as Daniel Skene)\nTristan Carlucci  ...  One Eye - 9\nScott Johnson  ...  Saw Tooth / Orderly\nBryan Verot  ...  Saw Tooth - 10\nJennifer Pudavick  ...  Kenia (as Jenny Pudavick)\nTenika Davis  ...  Sara\nKaitlyn Wong  ...  Bridget\nTerra Vnesa  ...  Jenna\nVictor Zinck Jr.  ...  Kyle\nDean Armstrong  ...  Daniel\nAli Tataryn  ...  Lauren\nSamantha Kendrick  ...  Claire\nArne MacPherson  ...  Dr. Ryan (as Arne Macpherson\n\nStats\nFormat                          : AVI\nFormat/Info                      : Audio Video Interleave\nFile size                        : 700 MiB\nDuration                        : 1h 29mn\nOverall bit rate                : 1 093 Kbps\nWriting application              : VirtualDubMod 1.5.10.2 (build 2540/release\nWriting library                  : VirtualDubMod build 2540/release\n\nVideo\nID                              : 0\nFormat                          : MPEG-4 Visual\nFormat profile                  : Advanced SimpleL5\nFormat settings, BVOP            : Yes\nFormat settings, QPel            : No\nFormat settings, GMC            : No warppoints\nFormat settings, Matrix          : Default (H.263\nMuxing mode                      : Packed bitstream\nCodec ID                        : XVID\nCodec ID/Hint                    : XviD\nDuration                        : 1h 29mn\nBit rate                        : 958 Kbps\nWidth                            : 624 pixels\nHeight                          : 352 pixels\nDisplay aspect ratio            : 16:9\nFrame rate                      : 25.000 fps\nColor space                      : YUV\nChroma subsampling              : 4:2:0\nBit depth                        : 8 bits\nScan type                        : Progressive\nBits/(PixelFrame)              : 0.174\nStream size                      : 613 MiB (88\nWriting library                  : XviD 62\n\nAudio\nID                              : 1\nFormat                          : MPEG Audio\nFormat version                  : Version 1\nFormat profile                  : Layer 3\nMode                            : Joint stereo\nMode extension                  : MS Stereo\nCodec ID                        : 55\nCodec ID/Hint                    : MP3\nDuration                        : 1h 29mn\nBit rate mode                    : Variable\nBit rate                        : 128 Kbps\nChannel(s)                      : 2 channels\nSampling rate                    : 48.0 KHz\nStream size                      : 78.7 MiB (11\nAlignment                        : Aligned on interleaves\nInterleave, duration            : 24 ms (0.60 video frame\nInterleave, preload duration    : 149 ms\nWriting library                  : LAME3.98r\nEncoding settings                : -m j -V 4 -q 2 -lowpass 17 --abr 128\n\nRelease notes\nenjoy\n\nLooking for\n75TB Archives\nDUTCH/FLEMiSH Archives\n\nGreets: CRBS EPiSODE FiCO FLS iLS KLASSiGER LiPSYNC MADE NODLABS RUNNER SPRiNTER\n\nASCII DONE BY XXNFO 2oo9\n","torrent":{"xt":"urn:btih:bdc1017880cc5f71b21a7919e060723154d1c673","amp;dn":"Wrong.Turn.4.Bloody.Beginnings.2011.DVDRip.XviD-EXViD.","amp;tr":["udp%3A%2F%2Ftracker.openbittorrent.com%3A80","udp%3A%2F%2Fopen.demonii.com%3A1337","udp%3A%2F%2Ftracker.coppersurfer.tk%3A6969","udp%3A%2F%2Fexodus.desync.com%3A6969"],"infoHash":"bdc1017880cc5f71b21a7919e060723154d1c673","infoHashBuffer":{"type":"Buffer","data":[189,193,1,120,128,204,95,113,178,26,121,25,224,96,114,49,84,209,198,115]},"announce":[],"urlList":[]}}